<svg xmlns="http://www.w3.org/2000/svg" viewBox="0 0 128 128">
  <defs>
    <linearGradient id="body" x1="40" x2="96" y1="42" y2="112" gradientUnits="userSpaceOnUse">
      <stop offset="0" stop-color="#d7efd2"/>
      <stop offset="0.6" stop-color="#86bd85"/>
      <stop offset="1" stop-color="#548d70"/>
    </linearGradient>
    <linearGradient id="shirt" x1="32" x2="99" y1="72" y2="114" gradientUnits="userSpaceOnUse">
      <stop offset="0" stop-color="#87c4e3"/>
      <stop offset="1" stop-color="#4f769e"/>
    </linearGradient>
    <linearGradient id="cone" x1="63" x2="78" y1="2" y2="44" gradientUnits="userSpaceOnUse">
      <stop offset="0" stop-color="#ffd58b"/>
      <stop offset="0.52" stop-color="#f28b35"/>
      <stop offset="1" stop-color="#be5427"/>
    </linearGradient>
  </defs>
  <ellipse cx="65" cy="116" rx="38" ry="8" fill="#22332c" opacity=".24"/>
  <path d="M42 66c-10 8-12 25-5 38 9 15 45 14 56 0 8-11 6-30-4-38-12-9-36-9-47 0Z" fill="url(#shirt)" stroke="#2f566f" stroke-width="4" stroke-linejoin="round"/>
  <path d="M37 51c-3-20 14-35 35-32 22 3 33 21 27 41-5 18-26 28-45 20-10-4-16-13-17-29Z" fill="url(#body)" stroke="#35624a" stroke-width="4" stroke-linejoin="round"/>
  <path d="M48 43c7-11 25-15 41-5" fill="none" stroke="#eff9dc" stroke-width="7" stroke-linecap="round" opacity=".42"/>
  <path d="M53 19 67 2l22 50c-15 5-32 3-48-5l12-28Z" fill="url(#cone)" stroke="#7e3c23" stroke-width="4" stroke-linejoin="round"/>
  <path d="M48 33c10 5 22 8 34 6M43 45c14 6 31 8 46 4" stroke="#fff1b6" stroke-width="5" stroke-linecap="round" opacity=".88"/>
  <circle cx="56" cy="55" r="7" fill="#fff7d8" stroke="#263238" stroke-width="3"/>
  <circle cx="80" cy="56" r="7" fill="#fff7d8" stroke="#263238" stroke-width="3"/>
  <circle cx="57" cy="56" r="2.8" fill="#263238"/>
  <circle cx="78" cy="57" r="2.8" fill="#263238"/>
  <path d="M60 70c8 5 15 5 23-1" fill="none" stroke="#31533f" stroke-width="4" stroke-linecap="round"/>
  <path d="M39 83c-10 2-18 11-18 19 9 2 20-3 25-14" fill="#94c78f" stroke="#35624a" stroke-width="4" stroke-linecap="round" stroke-linejoin="round"/>
  <path d="M90 82c10 1 19 8 21 17-9 3-20 0-26-10" fill="#94c78f" stroke="#35624a" stroke-width="4" stroke-linecap="round" stroke-linejoin="round"/>
  <path d="M49 105l-4 14M82 106l4 13" stroke="#394553" stroke-width="9" stroke-linecap="round"/>
  <path d="M38 119h20M76 119h22" stroke="#263238" stroke-width="7" stroke-linecap="round"/>
</svg>
